<?xml version="1.0" standalone="no"?>
<!DOCTYPE svg PUBLIC "-//W3C//DTD SVG 20010904//EN"
 "http://www.w3.org/TR/2001/REC-SVG-20010904/DTD/svg10.dtd">
<svg version="1.0" xmlns="http://www.w3.org/2000/svg"
 width="260.000000pt" height="260.000000pt" viewBox="0 0 260.000000 260.000000"
 preserveAspectRatio="xMidYMid meet">
<metadata>
Created by potrace 1.14, written by Peter Selinger 2001-2017
</metadata>
<g transform="translate(0.000000,260.000000) scale(0.100000,-0.100000)"
fill="#000000" stroke="none">
<path d="M1300 2475 l0 -45 -130 0 -130 0 0 -45 0 -45 -85 0 -85 0 0 -45 0
-45 -90 0 -90 0 0 -40 0 -40 260 0 260 0 0 -175 0 -175 -40 0 -40 0 0 -45 0
-45 -45 0 -45 0 0 -85 0 -85 -45 0 -45 0 0 -130 0 -130 -40 0 -40 0 0 -175 0
-175 -45 0 -45 0 0 -40 0 -40 -130 0 -130 0 0 -45 0 -45 -90 0 -90 0 0 -85 0
-85 135 0 135 0 0 40 0 40 85 0 85 0 0 -130 0 -130 45 0 45 0 0 -40 0 -40 40
0 40 0 0 -90 0 -90 45 0 45 0 0 90 0 90 85 0 85 0 0 40 0 40 45 0 45 0 0 45 0
45 130 0 130 0 0 -45 0 -45 45 0 45 0 0 -40 0 -40 40 0 40 0 0 -90 0 -90 45 0
45 0 0 130 0 130 85 0 85 0 0 220 0 220 -40 0 -40 0 0 85 0 85 40 0 40 0 0 45
0 45 90 0 90 0 0 85 0 85 -130 0 -130 0 0 -45 0 -45 -45 0 -45 0 0 130 0 130
-45 0 -45 0 0 130 0 130 -40 0 -40 0 0 90 0 90 40 0 40 0 0 130 0 130 265 0
265 0 0 40 0 40 -90 0 -90 0 0 45 0 45 -85 0 -85 0 0 45 0 45 -130 0 -130 0 0
45 0 45 -175 0 -175 0 0 -45z"/>
</g>
</svg>
